<svg version="1.2" baseProfile="tiny-ps" xmlns="http://www.w3.org/2000/svg" viewBox="0 0 1500 1500" width="1500" height="1500">
	<title>Mobile login-ai</title>
	<style>
		tspan { white-space:pre }
		.shp0 { fill: #e6e6e6 } 
		.shp1 { fill: #e0e0e0 } 
		.shp2 { fill: #fafafa } 
		.shp3 { fill: #f5f5f5 } 
		.shp4 { fill: #f0f0f0 } 
		.shp5 { fill: #ffffff } 
		.shp6 { fill: #e58a7b } 
		.shp7 { fill: #407bff } 
		.shp8 { opacity: 0.2;fill: #000000 } 
		.shp9 { mix-blend-mode: multiply;fill: #e8ecf1 } 
		.shp10 { fill: #263238 } 
		.shp11 { fill: #cf6f64 } 
		.shp12 { fill: #df5753 } 
		.shp13 { opacity: 0.561;fill: #fafafa } 
		.shp14 { opacity: 0.071;fill: #407bff } 
		.shp15 { opacity: 0.471;fill: #407bff } 
		.shp16 { opacity: 0.102;fill: #ffffff } 
		.shp17 { opacity: 0.6;fill: #000000 } 
		.shp18 { opacity: 0.4;fill: #000000 } 
		.shp19 { opacity: 0.4;fill: #ffffff } 
		.shp20 { mix-blend-mode: multiply;fill: #f5f5f5 } 
		.shp21 { opacity: 0.302;fill: #ffffff } 
	</style>
	<g id="Background complete">
		<g id="&lt;Group&gt;">
			<g id="&lt;Group&gt;">
				<path id="&lt;Path&gt;" class="shp0" d="M1500 1147.95L0 1147.95L0 1147.2L1500 1147.2L1500 1147.95Z" />
				<path id="&lt;Path&gt;" class="shp0" d="M374.48 1193.33L275.11 1193.33L275.11 1192.58L374.48 1192.58L374.48 1193.33Z" />
				<path id="&lt;Path&gt;" class="shp0" d="M243.67 1193.33L186.09 1193.33L186.09 1192.58L243.67 1192.58L243.67 1193.33Z" />
				<path id="&lt;Path&gt;" class="shp0" d="M631.66 1204.37L574.09 1204.37L574.09 1203.62L631.66 1203.62L631.66 1204.37Z" />
				<path id="&lt;Path&gt;" class="shp0" d="M931.85 1221.12L802.27 1221.12L802.27 1220.37L931.85 1220.37L931.85 1221.12Z" />
				<path id="&lt;Path&gt;" class="shp0" d="M775.56 1221.12L756.56 1221.12L756.56 1220.37L775.56 1220.37L775.56 1221.12Z" />
				<path id="&lt;Path&gt;" class="shp0" d="M1360.03 1204.37L1079 1204.37L1079 1203.62L1360.03 1203.62L1360.03 1204.37Z" />
				<g id="&lt;Group&gt;">
					<path id="&lt;Compound Path&gt;" fill-rule="evenodd" class="shp0" d="M711.04 1013.4L131.75 1013.4C122.3 1013.4 114.62 1005.72 114.62 996.28L114.62 181.98C114.62 172.54 122.3 164.86 131.75 164.86L711.04 164.86C720.48 164.86 728.16 172.54 728.16 181.98L728.16 996.28C728.16 1005.72 720.48 1013.4 711.04 1013.4ZM131.75 165.61C122.72 165.61 115.37 172.95 115.37 181.98L115.37 996.28C115.37 1005.3 122.72 1012.65 131.75 1012.65L711.04 1012.65C720.07 1012.65 727.41 1005.3 727.41 996.28L727.41 181.98C727.41 172.95 720.07 165.61 711.04 165.61L131.75 165.61Z" />
					<path id="&lt;Compound Path&gt;" fill-rule="evenodd" class="shp0" d="M1359.93 1013.4L780.64 1013.4C771.2 1013.4 763.51 1005.72 763.51 996.28L763.51 181.98C763.51 172.54 771.2 164.86 780.64 164.86L1359.93 164.86C1369.37 164.86 1377.06 172.54 1377.06 181.98L1377.06 996.28C1377.06 1005.72 1369.37 1013.4 1359.93 1013.4ZM780.64 165.61C771.61 165.61 764.26 172.95 764.26 181.98L764.26 996.28C764.26 1005.3 771.61 1012.65 780.64 1012.65L1359.93 1012.65C1368.96 1012.65 1376.31 1005.3 1376.31 996.28L1376.31 181.98C1376.31 172.95 1368.96 165.61 1359.93 165.61L780.64 165.61Z" />
				</g>
			</g>
			<g id="&lt;Group&gt;">
				<path id="&lt;Path&gt;" class="shp1" d="M802.2 1152.64L736.23 1152.64L736.23 890.93L802.2 890.93L802.2 1152.64Z" />
				<path id="&lt;Path&gt;" class="shp2" d="M789.67 1152.64L802.2 1152.64L802.2 1117L776.53 1117L789.67 1152.64Z" />
				<path id="&lt;Path&gt;" class="shp1" d="M513.13 1152.64L447.16 1152.64L447.16 890.93L513.13 890.93L513.13 1152.64Z" />
				<path id="&lt;Path&gt;" class="shp2" d="M802.2 1130.77L502.2 1130.77L502.2 890.93L802.2 890.93L802.2 1130.77Z" />
				<path id="&lt;Compound Path&gt;" fill-rule="evenodd" class="shp1" d="M792.48 967.33L511.92 967.33L511.92 901.56L792.48 901.56L792.48 967.33ZM513.08 902.72L513.08 966.17L791.32 966.17L791.32 902.72L513.08 902.72Z" />
				<path id="&lt;Path&gt;" class="shp2" d="M514.73 1152.64L502.2 1152.64L502.2 1117L527.86 1117L514.73 1152.64Z" />
				<path id="&lt;Path&gt;" class="shp0" d="M645.56 934.45C645.56 938.11 648.53 941.08 652.2 941.08C655.86 941.08 658.83 938.11 658.83 934.45C658.83 930.78 655.86 927.81 652.2 927.81C648.53 927.81 645.56 930.78 645.56 934.45Z" />
				<path id="&lt;Compound Path&gt;" fill-rule="evenodd" class="shp1" d="M792.48 1043.73L511.92 1043.73L511.92 977.96L792.48 977.96L792.48 1043.73ZM513.08 979.12L513.08 1042.57L791.32 1042.57L791.32 979.12L513.08 979.12Z" />
				<path id="&lt;Path&gt;" class="shp0" d="M645.56 1010.85C645.56 1014.51 648.53 1017.48 652.2 1017.48C655.86 1017.48 658.83 1014.51 658.83 1010.85C658.83 1007.18 655.86 1004.21 652.2 1004.21C648.53 1004.21 645.56 1007.18 645.56 1010.85Z" />
				<path id="&lt;Compound Path&gt;" fill-rule="evenodd" class="shp1" d="M792.48 1120.14L511.92 1120.14L511.92 1054.36L792.48 1054.36L792.48 1120.14ZM513.08 1055.52L513.08 1118.98L791.32 1118.98L791.32 1055.52L513.08 1055.52Z" />
				<path id="&lt;Path&gt;" class="shp0" d="M645.56 1087.25C645.56 1090.91 648.53 1093.88 652.2 1093.88C655.86 1093.88 658.83 1090.91 658.83 1087.25C658.83 1083.59 655.86 1080.61 652.2 1080.61C648.53 1080.61 645.56 1083.59 645.56 1087.25Z" />
			</g>
			<g id="&lt;Group&gt;">
				<path id="&lt;Path&gt;" class="shp1" d="M472.83 1152.64L406.86 1152.64L406.86 738.95L472.83 738.95L472.83 1152.64Z" />
				<path id="&lt;Path&gt;" class="shp2" d="M460.3 1152.64L472.83 1152.64L472.83 1117L447.16 1117L460.3 1152.64Z" />
				<path id="&lt;Path&gt;" class="shp1" d="M226.28 1152.64L160.32 1152.64L160.32 738.95L226.28 738.95L226.28 1152.64Z" />
				<path id="&lt;Path&gt;" class="shp2" d="M472.83 1130.77L215.35 1130.77L215.35 738.95L472.83 738.95L472.83 1130.77Z" />
				<path id="&lt;Compound Path&gt;" fill-rule="evenodd" class="shp1" d="M463.11 840.12L225.07 840.12L225.07 748.68L463.11 748.68L463.11 840.12ZM226.43 750.04L226.43 838.75L461.74 838.75L461.74 750.04L226.43 750.04Z" />
				<path id="&lt;Compound Path&gt;" fill-rule="evenodd" class="shp1" d="M463.11 1086.21L348.29 1086.21L348.29 848.17L463.11 848.17L463.11 1086.21ZM349.66 849.54L349.66 1084.84L461.74 1084.84L461.74 849.54L349.66 849.54Z" />
				<path id="&lt;Compound Path&gt;" fill-rule="evenodd" class="shp1" d="M339.88 1086.21L225.07 1086.21L225.07 848.17L339.88 848.17L339.88 1086.21ZM226.43 849.54L226.43 1084.84L338.52 1084.84L338.52 849.54L226.43 849.54Z" />
				<path id="&lt;Path&gt;" class="shp2" d="M227.88 1152.64L215.35 1152.64L215.35 1117L241.01 1117L227.88 1152.64Z" />
				<path id="&lt;Path&gt;" class="shp0" d="M337.45 794.4C337.45 798.06 340.43 801.03 344.09 801.03C347.75 801.03 350.72 798.06 350.72 794.4C350.72 790.73 347.75 787.76 344.09 787.76C340.43 787.76 337.45 790.73 337.45 794.4Z" />
				<path id="&lt;Path&gt;" class="shp0" d="M361.21 961.58C361.21 965.24 364.18 968.21 367.84 968.21C371.51 968.21 374.48 965.24 374.48 961.58C374.48 957.91 371.51 954.94 367.84 954.94C364.18 954.94 361.21 957.91 361.21 961.58Z" />
				<path id="&lt;Path&gt;" class="shp0" d="M313.7 961.58C313.7 965.24 316.67 968.21 320.33 968.21C324 968.21 326.97 965.24 326.97 961.58C326.97 957.91 324 954.94 320.33 954.94C316.67 954.94 313.7 957.91 313.7 961.58Z" />
			</g>
			<path id="&lt;Path&gt;" class="shp1" d="M306.22 623.61L278.39 623.61C281.62 640.76 283.23 654.38 283.23 664.47C283.23 679.61 262.06 738.95 292.31 738.95C322.56 738.95 301.39 679.61 301.39 664.47C301.39 654.38 303 640.76 306.22 623.61Z" />
			<path id="&lt;Path&gt;" class="shp3" d="M200.41 684.44L200.41 702.53C200.41 722.56 216.8 738.95 236.83 738.95L254.91 738.95C274.94 738.95 291.33 722.56 291.33 702.53L291.33 684.44L200.41 684.44Z" />
			<path id="&lt;Path&gt;" class="shp1" d="M587 852.79C587 873.77 610.49 890.93 639.21 890.93L665.13 890.93C693.84 890.93 717.33 873.77 717.33 852.79L587 852.79Z" />
			<g id="&lt;Group&gt;">
				<path id="&lt;Path&gt;" class="shp1" d="M1273.82 822.09C1258.1 834.92 1236.4 858.42 1216.52 891.47C1203.28 913.49 1195.3 936.55 1191.79 967.03C1191.87 932.53 1191.98 895.47 1192.1 860.48C1196.09 851.48 1205.21 830.74 1211.75 814.34C1233.58 759.65 1241.72 746.2 1261.35 699.03C1287.54 636.11 1314.37 561.44 1306.69 567.41C1291.03 579.57 1231.03 691.92 1224.54 708C1202.24 763.32 1196.02 803.65 1192.16 842.56C1192.28 809.71 1192.41 779.54 1192.54 756.26C1192.94 680.33 1194.23 655.83 1194.86 648.27C1197.29 644.43 1200.15 639.96 1201.82 637.55C1215.92 617.17 1221.35 599.81 1234.63 569.41C1253.45 526.34 1269.66 449.87 1264.92 453.73C1245.19 469.79 1229.63 504.31 1209.18 548.31C1188.74 592.3 1194.58 617.6 1190.53 655.18C1189.67 662.55 1189.02 690.38 1188.55 728.94C1183.25 687.85 1173.3 660.78 1155.15 636.18C1132.83 605.91 1111.23 585.47 1095.38 574.8C1079.54 564.12 1122.74 638.46 1143.41 670.9C1161.81 699.8 1178.76 725.29 1188.32 750.4C1187.81 802.67 1187.58 868.85 1187.58 930.46C1182.84 902.42 1175.1 872.23 1164.77 848.85C1152.36 820.76 1133.27 777.68 1118.08 763.07C1114.43 759.56 1133.97 843.35 1146.51 865.63C1159.05 887.91 1168.25 908.91 1176.14 921.54C1177.98 924.49 1184.09 935.85 1187.58 942.38C1187.62 1017.59 1188 1083.96 1188.65 1106.55L1191.9 1106.55C1191.68 1100.72 1191.64 1062.46 1191.71 1011.82C1199.54 984.33 1217.43 952.96 1232.2 924.33C1248.32 893.09 1289.54 809.26 1273.82 822.09Z" />
				<g id="&lt;Group&gt;">
					<path id="&lt;Path&gt;" class="shp4" d="M1237.32 1152.64L1143.29 1152.64L1136.19 1060.46L1244.42 1060.46L1237.32 1152.64Z" />
					<path id="&lt;Path&gt;" class="shp3" d="M1251.43 1071.21L1129.19 1071.21L1125.68 1040.11L1254.93 1040.11L1251.43 1071.21Z" />
				</g>
			</g>
			<g id="&lt;Group&gt;">
				<path id="&lt;Path&gt;" class="shp1" d="M372.78 411.14L204.62 411.14L204.62 226.49L372.78 226.49L372.78 411.14Z" />
				<path id="&lt;Path&gt;" class="shp3" d="M390.99 411.14L217.3 411.14L217.3 226.49L390.99 226.49L390.99 411.14Z" />
				<path id="&lt;Path&gt;" class="shp5" d="M231.85 396.59L231.85 241.04L376.44 241.04L376.44 396.59L231.85 396.59Z" />
				<path id="&lt;Path&gt;" class="shp3" d="M266.9 358.89L266.9 278.75L341.39 278.75L341.39 358.89L266.9 358.89Z" />
			</g>
			<g id="&lt;Group&gt;">
				<g id="&lt;Group&gt;">
					<path id="&lt;Path&gt;" class="shp1" d="M1230.15 419.55L1073.94 419.55L1073.94 248.02L1230.15 248.02L1230.15 419.55Z" />
					<path id="&lt;Path&gt;" class="shp3" d="M1247.07 419.55L1085.72 419.55L1085.72 248.02L1247.07 248.02L1247.07 419.55Z" />
					<path id="&lt;Path&gt;" class="shp5" d="M1099.24 406.03L1099.24 261.53L1233.55 261.53L1233.55 406.03L1099.24 406.03Z" />
				</g>
				<path id="&lt;Path&gt;" class="shp3" d="M1208.3 333.78C1208.3 356.93 1189.54 375.69 1166.39 375.69C1143.25 375.69 1124.49 356.93 1124.49 333.78C1124.49 310.64 1143.25 291.88 1166.39 291.88C1189.54 291.88 1208.3 310.64 1208.3 333.78Z" />
			</g>
			<g id="&lt;Group&gt;">
				<g id="&lt;Group&gt;">
					<path id="&lt;Path&gt;" class="shp1" d="M547.47 473.57L422.73 473.57L422.73 336.59L547.47 336.59L547.47 473.57Z" />
					<path id="&lt;Path&gt;" class="shp3" d="M560.98 473.57L432.13 473.57L432.13 336.59L560.98 336.59L560.98 473.57Z" />
					<path id="&lt;Path&gt;" class="shp5" d="M442.93 462.77L442.93 347.38L550.19 347.38L550.19 462.77L442.93 462.77Z" />
					<path id="&lt;Path&gt;" class="shp3" d="M496.56 375.91L467.22 426.72L525.89 426.72L496.56 375.91Z" />
				</g>
			</g>
		</g>
	</g>
	<g id="Shadow">
		<path id="&lt;Path&gt;" class="shp3" d="M1331.67 1248.71C1331.67 1267.48 1071.25 1282.68 750 1282.68C428.75 1282.68 168.33 1267.48 168.33 1248.71C168.33 1229.95 428.75 1214.74 750 1214.74C1071.25 1214.74 1331.67 1229.95 1331.67 1248.71Z" />
	</g>
	<g id="Character 2">
		<g id="&lt;Group&gt;">
			<path id="&lt;Path&gt;" class="shp6" d="M1047.74 490.3L1017.98 478.23C991.8 525.97 974.96 551.05 967.46 553.46C952.16 558.38 920.5 572.06 901.7 574.62C899.16 577.59 894.98 586.94 895.38 590.34C920.61 598.76 976.05 587.58 987.92 578.77C1005.96 565.37 1025.89 535.88 1047.74 490.3Z" />
			<g id="&lt;Group&gt;">
				<path id="&lt;Path&gt;" class="shp7" d="M1056.9 474.05C1060.59 487.72 1052.42 508.3 1032.38 535.78L992.89 513.63C997.8 502.33 1003.26 490.93 1009.27 479.43C1023.82 451.57 1050.58 450.63 1056.9 474.05Z" />
				<path id="&lt;Path&gt;" class="shp8" d="M1056.9 474.05C1060.59 487.72 1052.42 508.3 1032.38 535.78L992.89 513.63C997.8 502.33 1003.26 490.93 1009.27 479.43C1023.82 451.57 1050.58 450.63 1056.9 474.05Z" />
			</g>
			<path id="&lt;Path&gt;" class="shp8" d="M1008.64 522.44L1024.14 531.14L1026.86 483.54C1017.85 490.47 1011.47 511.35 1008.64 522.44Z" />
			<g id="&lt;Group&gt;">
				<path id="&lt;Path&gt;" class="shp7" d="M1030.99 458.59C1010.55 504.06 1006.29 569.14 1018.2 653.82C1054.6 653.82 1121.3 653.82 1139.01 653.82C1140.93 635.27 1134.58 544.81 1157.59 457.43C1143.95 454.65 1130.57 452.95 1117.45 452.32C1102.06 451.57 1079.74 451.08 1066.1 452.32C1054.1 453.41 1042.4 455.5 1030.99 458.59Z" />
				<path id="&lt;Path&gt;" class="shp8" d="M1030.99 458.59C1010.55 504.06 1006.29 569.14 1018.2 653.82C1054.6 653.82 1121.3 653.82 1139.01 653.82C1140.93 635.27 1134.58 544.81 1157.59 457.43C1143.95 454.65 1130.57 452.95 1117.45 452.32C1102.06 451.57 1079.74 451.08 1066.1 452.32C1054.1 453.41 1042.4 455.5 1030.99 458.59Z" />
			</g>
			<path id="&lt;Path&gt;" class="shp9" d="M1002.97 1251.42C1002.78 1254.65 1048.58 1257.26 1105.27 1257.26C1161.97 1257.26 1208.08 1254.65 1208.26 1251.42C1208.45 1248.2 1162.65 1245.59 1105.96 1245.59C1049.27 1245.59 1003.16 1248.2 1002.97 1251.42Z" />
			<path id="&lt;Path&gt;" class="shp6" d="M1104.96 1218.29L1083.47 1226.58L1064.99 1178.74L1086.49 1170.46L1104.96 1218.29Z" />
			<path id="&lt;Path&gt;" class="shp6" d="M1179.15 1228.36L1156.57 1228.36L1148.28 1176.06L1170.87 1176.06L1179.15 1228.36Z" />
			<path id="&lt;Path&gt;" class="shp10" d="M1155.11 1225.75L1180.49 1225.75C1181.41 1225.75 1182.18 1226.39 1182.32 1227.29L1185.61 1247.37C1185.95 1249.45 1184.2 1251.42 1182.07 1251.38C1173.21 1251.23 1168.94 1250.71 1157.78 1250.71C1150.92 1250.71 1136.73 1251.42 1127.25 1251.42C1117.98 1251.42 1117.08 1242.05 1121.01 1241.2C1138.64 1237.39 1145.5 1232.14 1151.37 1227.14C1152.42 1226.23 1153.76 1225.75 1155.11 1225.75Z" />
			<path id="&lt;Path&gt;" class="shp10" d="M1079.92 1217.84L1103.98 1210.84C1104.88 1210.58 1105.81 1210.97 1106.21 1211.78L1115.13 1229.77C1116.05 1231.63 1114.96 1233.97 1112.87 1234.54C1104.15 1236.92 1098.29 1238.41 1087.38 1241.58C1079.84 1243.77 1072.18 1247.34 1064.73 1249.71C1059.57 1251.36 1047.46 1251.42 1041.19 1251.42C1031.91 1251.42 1029.85 1241.65 1033.82 1241.2C1043.88 1240.07 1045.23 1240.6 1050.78 1237.81C1059.96 1233.21 1067.06 1229.39 1075.01 1221.07C1076.4 1219.62 1078.02 1218.39 1079.92 1217.84Z" />
			<path id="&lt;Path&gt;" class="shp6" d="M905.5 574.41L880.64 563.95L870.41 591.48C879.97 593.22 890.22 593.22 901.14 591.48L905.5 574.41Z" />
			<path id="&lt;Path&gt;" class="shp6" d="M862.17 563.27L861.52 581.59L870.41 591.48L880.64 563.95L862.17 563.27Z" />
			<g id="&lt;Group&gt;">
				<path id="&lt;Path&gt;" class="shp11" d="M1065 1178.75L1074.52 1203.41L1096.03 1195.12L1086.51 1170.46L1065 1178.75Z" />
				<path id="&lt;Path&gt;" class="shp11" d="M1170.87 1176.07L1148.28 1176.07L1152.56 1203.03L1175.16 1203.03L1170.87 1176.07Z" />
			</g>
			<path id="&lt;Path&gt;" class="shp8" d="M1014.37 619.46C1014.8 624.89 1015.33 630.44 1015.97 636.14L1105.81 606.98C1119.83 602.78 1132.04 593.97 1140.37 581.91C1140.7 573.9 1141.17 565.48 1141.85 556.69C1142.15 552.41 1142.52 548.03 1142.92 543.59C1143.36 538.97 1143.85 534.25 1144.4 529.5L1014.37 619.46Z" />
			<path id="&lt;Path&gt;" class="shp5" d="M1043.7 521.06L1040.64 520.7C1042.42 505.73 1053.6 493.9 1065.4 494.18L1065.31 497.26C1055.12 496.97 1045.3 507.64 1043.7 521.06Z" />
			<path id="&lt;Path&gt;" class="shp5" d="M1059.68 548.77C1059.51 548.77 1059.35 548.76 1059.18 548.76L1059.27 545.68C1069.58 546.05 1079.28 535.3 1080.88 521.87L1083.94 522.24C1082.18 537 1071.36 548.77 1059.68 548.77Z" />
			<path id="&lt;Path&gt;" class="shp6" d="M1115.75 394.49C1111.55 411.02 1106.54 441.29 1117.45 452.32C1112.37 463.49 1099.59 469.08 1079.12 469.08C1060.42 469.08 1056.08 463.49 1066.1 452.32C1084.78 447.92 1085.11 434.25 1082.65 421.41L1115.75 394.49Z" />
			<path id="&lt;Path&gt;" class="shp11" d="M1102.26 405.48L1082.66 421.4C1083.26 424.43 1083.67 427.52 1083.71 430.51C1089.44 436.21 1100.94 421.77 1102.11 414.4C1102.7 410.72 1102.76 407.19 1102.26 405.48Z" />
			<path id="&lt;Path&gt;" class="shp11" d="M1048.99 394.29C1051.86 399.43 1056.93 402.63 1061.72 403.7C1068.92 405.3 1072.54 398.67 1070.56 392C1068.77 386 1062.87 377.94 1055.63 379.32C1048.5 380.68 1045.71 388.41 1048.99 394.29Z" />
			<path id="&lt;Path&gt;" class="shp10" d="M1060.88 341.4C1049.66 346.54 1045.71 391.11 1059.81 397.7C1073.92 404.29 1082.13 331.66 1060.88 341.4Z" />
			<path id="&lt;Path&gt;" class="shp6" d="M1119.18 369.62C1116.49 392 1116.05 405.16 1104.08 416.65C1086.07 433.92 1059.05 423.68 1055.02 401.34C1051.39 381.24 1056.39 348.03 1078.82 339.12C1100.91 330.35 1121.86 347.25 1119.18 369.62Z" />
			<path id="&lt;Path&gt;" class="shp10" d="M1082.32 352.99C1098.92 348.75 1111.13 345.86 1106.77 359.71C1100.97 378.17 1094 396.05 1103.34 396.88C1109.03 397.39 1134.23 386.69 1131.03 375.88C1128.24 366.46 1139.96 363.92 1142.12 359.12C1149.9 341.82 1127.67 344.06 1131.62 333.6C1135.48 323.41 1113.72 306.18 1101.66 314.6C1082.14 328.22 1048.61 328.02 1066.24 305.68C1074.66 295.01 1071.36 290.77 1056.34 292.96C1065.41 298.34 1062.31 305.19 1047.04 313.51C1022.76 326.75 1044.98 362.55 1082.32 352.99Z" />
			<path id="&lt;Path&gt;" class="shp6" d="M1127.84 394.29C1124.36 399.43 1118.92 402.63 1114.01 403.7C1106.61 405.3 1103.77 398.67 1106.54 392C1109.03 386 1115.88 377.94 1122.95 379.32C1129.93 380.68 1131.81 388.41 1127.84 394.29Z" />
			<path id="&lt;Path&gt;" class="shp7" d="M1018.2 653.82C1004.68 774.81 997.4 858.27 996.34 904.19C995.25 951.95 1018.15 1050.35 1065.07 1199.37L1101.1 1184.24C1073.13 1048.1 1061.09 956.57 1064.97 909.66C1069.21 858.52 1080.09 773.24 1097.62 653.82L1018.2 653.82Z" />
			<path id="&lt;Path&gt;" class="shp8" d="M1068.6 703.65C1052.44 737.19 1063.33 803.51 1072.08 842.81C1075.41 815.07 1079.36 784.95 1083.12 757.08C1082.75 714.23 1079.42 681.15 1068.6 703.65Z" />
			<path id="&lt;Path&gt;" class="shp7" d="M1099.47 1172.48C1099.58 1172.43 1101.01 1176.26 1103.74 1183.96L1062.21 1201.4L1055.67 1189.23L1099.47 1172.48Z" />
			<path id="&lt;Path&gt;" class="shp7" d="M1061.06 653.82C1071.4 768.9 1080 847.99 1086.85 891.1C1094.36 938.31 1112.85 1040.55 1142.34 1197.81L1183.71 1197.81C1167.18 1044.36 1157.36 944.26 1154.24 897.52C1150.85 846.79 1145.77 765.56 1139.01 653.82L1061.06 653.82Z" />
			<path id="&lt;Path&gt;" class="shp7" d="M1184.34 1187.03C1184.46 1187.03 1184.92 1190.88 1185.72 1198.59L1140.25 1198.59L1137.01 1185.32L1184.34 1187.03Z" />
			<path id="&lt;Path&gt;" class="shp8" d="M1168.49 1173.37C1168.3 1173.37 1168.13 1173.22 1168.11 1173.02C1167.88 1170.93 1145.53 963.12 1141.32 900.13C1136.76 831.77 1127.58 680.19 1127.49 678.67C1127.48 678.46 1127.64 678.27 1127.85 678.26C1127.86 678.26 1127.87 678.26 1127.88 678.26C1128.08 678.26 1128.25 678.42 1128.26 678.62C1128.35 680.15 1137.53 831.72 1142.09 900.08C1146.3 963.06 1168.65 1170.85 1168.87 1172.94C1168.9 1173.15 1168.74 1173.34 1168.53 1173.36C1168.52 1173.37 1168.5 1173.37 1168.49 1173.37Z" />
			<path id="&lt;Path&gt;" class="shp10" d="M1084.87 375.88C1084.77 377.7 1083.71 379.18 1082.52 379.18C1081.33 379.18 1080.45 377.7 1080.56 375.88C1080.67 374.06 1081.72 372.58 1082.91 372.58C1084.1 372.58 1084.98 374.06 1084.87 375.88Z" />
			<path id="&lt;Path&gt;" class="shp10" d="M1064.28 375.88C1064.17 377.7 1063.12 379.18 1061.93 379.18C1060.74 379.18 1059.86 377.7 1059.97 375.88C1060.07 374.06 1061.13 372.58 1062.32 372.58C1063.51 372.58 1064.39 374.06 1064.28 375.88Z" />
			<path id="&lt;Path&gt;" class="shp12" d="M1070.77 376.79C1067.6 383.79 1064.4 388.99 1061.16 392.37C1063.19 394.37 1066.06 394.92 1069.76 394L1070.77 376.79Z" />
			<path id="&lt;Path&gt;" class="shp10" d="M1071.3 401.64C1071 401.64 1070.78 401.4 1070.79 401.11C1070.81 400.81 1071.06 400.57 1071.36 400.57C1079.36 400.57 1083.42 394.99 1083.46 394.93C1083.64 394.68 1083.97 394.61 1084.21 394.78C1084.44 394.94 1084.49 395.27 1084.32 395.52C1084.14 395.76 1079.87 401.64 1071.3 401.64Z" />
			<path id="&lt;Path&gt;" class="shp10" d="M1088.53 370.34C1088.23 370.46 1087.88 370.44 1087.59 370.26C1083.65 367.78 1079.98 369.44 1079.95 369.46C1079.44 369.72 1078.78 369.49 1078.55 368.96C1078.33 368.43 1078.59 367.79 1079.14 367.53C1079.33 367.44 1083.92 365.35 1088.81 368.43C1089.29 368.74 1089.42 369.39 1089.08 369.9C1088.94 370.1 1088.75 370.25 1088.53 370.34Z" />
			<path id="&lt;Path&gt;" class="shp10" d="M1056.32 364.35C1056.17 364.31 1056.03 364.24 1055.91 364.12C1055.49 363.73 1055.49 363.06 1055.91 362.61C1060.1 358.19 1064.95 358.86 1065.16 358.89C1065.73 358.96 1066.11 359.52 1065.98 360.11C1065.86 360.69 1065.3 361.09 1064.72 361.01C1064.56 360.99 1060.77 360.5 1057.43 364.04C1057.13 364.35 1056.69 364.46 1056.32 364.35Z" />
			<path id="&lt;Path&gt;" class="shp6" d="M1169.19 486.95L1137.98 478.64C1117.58 528.86 1103.78 555.61 1096.57 558.88C1081.86 565.58 1044.62 588.73 1028.79 599.89C1027.91 603.62 1028.6 613.57 1030.6 616.28C1057.51 611.38 1109.29 591.48 1120.08 581.36C1136.5 565.99 1152.86 534.51 1169.19 486.95Z" />
			<path id="&lt;Compound Path&gt;" fill-rule="evenodd" class="shp7" d="M1147.41 1229.69C1145.69 1229.69 1144.1 1229.4 1143.13 1228.54C1142.36 1227.86 1142.05 1226.91 1142.19 1225.71C1142.3 1224.82 1142.8 1224.4 1143.2 1224.2C1145.74 1222.92 1152.79 1227.39 1153.59 1227.91C1153.76 1228.02 1153.85 1228.24 1153.8 1228.45C1153.75 1228.66 1153.58 1228.83 1153.37 1228.88C1151.78 1229.26 1149.5 1229.69 1147.41 1229.69ZM1144.33 1225.02C1144.05 1225.02 1143.82 1225.06 1143.63 1225.15C1143.48 1225.23 1143.31 1225.37 1143.26 1225.78C1143.15 1226.63 1143.35 1227.27 1143.87 1227.72C1145.04 1228.76 1147.98 1228.9 1151.86 1228.13C1149.4 1226.65 1146.06 1225.02 1144.33 1225.02Z" />
			<path id="&lt;Compound Path&gt;" fill-rule="evenodd" class="shp7" d="M1153.24 1228.9C1153.16 1228.9 1153.07 1228.88 1152.99 1228.83C1150.73 1227.56 1146.5 1222.61 1147.13 1220.09C1147.24 1219.64 1147.62 1218.85 1148.91 1218.69C1149.76 1218.59 1150.5 1218.82 1151.15 1219.38C1153.65 1221.52 1153.81 1228.04 1153.81 1228.32C1153.82 1228.52 1153.71 1228.7 1153.54 1228.81C1153.45 1228.87 1153.35 1228.9 1153.24 1228.9ZM1149.22 1219.74C1149.14 1219.74 1149.06 1219.75 1148.98 1219.76C1148.28 1219.84 1148.2 1220.16 1148.17 1220.3C1147.8 1221.78 1150.46 1225.52 1152.68 1227.29C1152.52 1225.38 1152.03 1221.58 1150.43 1220.21C1150.06 1219.89 1149.66 1219.74 1149.22 1219.74Z" />
			<path id="&lt;Compound Path&gt;" fill-rule="evenodd" class="shp7" d="M1067.75 1225.96C1065.54 1226.49 1063.44 1226.65 1062.09 1225.92C1061.24 1225.46 1060.75 1224.69 1060.63 1223.63C1060.57 1223 1060.78 1222.45 1061.24 1222.04C1063.66 1219.89 1073.45 1222.2 1074.56 1222.47C1074.77 1222.53 1074.93 1222.71 1074.93 1222.94C1074.94 1223.17 1074.81 1223.38 1074.6 1223.48C1072.78 1224.31 1070.2 1225.36 1067.75 1225.96ZM1062.87 1222.39C1062.46 1222.49 1062.14 1222.63 1061.93 1222.82C1061.74 1222.99 1061.67 1223.18 1061.7 1223.46C1061.78 1224.17 1062.09 1224.67 1062.65 1224.98C1064.24 1225.84 1067.94 1225.16 1072.7 1223.16C1069.35 1222.46 1064.98 1221.88 1062.87 1222.39Z" />
			<path id="&lt;Compound Path&gt;" fill-rule="evenodd" class="shp7" d="M1074.5 1223.51C1074.42 1223.53 1074.35 1223.53 1074.27 1223.52C1071.37 1222.98 1065.16 1219.53 1065.1 1216.95C1065.09 1216.35 1065.37 1215.52 1066.79 1215.03C1067.82 1214.64 1068.88 1214.72 1069.88 1215.21C1073.14 1216.81 1074.84 1222.57 1074.92 1222.82C1074.97 1223 1074.92 1223.2 1074.79 1223.34C1074.71 1223.43 1074.61 1223.49 1074.5 1223.51ZM1067.4 1215.94C1067.3 1215.96 1067.2 1216 1067.09 1216.03C1066.16 1216.36 1066.17 1216.74 1066.17 1216.86C1066.21 1218.41 1070.52 1221.26 1073.56 1222.22C1072.96 1220.57 1071.5 1217.22 1069.36 1216.17C1068.72 1215.85 1068.07 1215.77 1067.4 1215.94Z" />
			<path id="&lt;Path&gt;" class="shp6" d="M1031.33 598.12L1000.05 612.52L996.42 621.35L1007.98 629.12C1022.37 627.56 1031.61 622.15 1035.71 612.91L1031.33 598.12Z" />
			<path id="&lt;Path&gt;" class="shp10" d="M1032.67 616.79C1030.71 605.17 1026.89 599.86 1026.85 599.81L1031.78 596.11C1031.98 596.37 1036.51 602.49 1038.75 615.76L1032.67 616.79Z" />
			<path id="&lt;Path&gt;" class="shp10" d="M1037.99 602.37C1039.01 604.88 1037.38 607.91 1034.35 609.13C1031.33 610.35 1028.05 609.31 1027.04 606.8C1026.02 604.29 1027.65 601.27 1030.68 600.04C1033.7 598.82 1036.98 599.86 1037.99 602.37Z" />
			<path id="&lt;Path&gt;" class="shp6" d="M978.91 624.14L983.07 628.35L1011.14 616.35L1000.05 612.52L978.91 624.14Z" />
			<path id="&lt;Path&gt;" class="shp8" d="M1099.47 1172.48C1099.58 1172.43 1101.01 1176.26 1103.74 1183.96L1062.21 1201.4L1055.67 1189.23L1099.47 1172.48Z" />
			<path id="&lt;Path&gt;" class="shp8" d="M1184.34 1187.03C1184.46 1187.03 1184.92 1190.88 1185.72 1198.59L1140.25 1198.59L1137.01 1185.32L1184.34 1187.03Z" />
			<g id="&lt;Group&gt;">
				<path id="&lt;Path&gt;" class="shp7" d="M1177.32 478.32C1182.83 496.05 1174.87 517.03 1153.45 541.26L1108.9 523.08C1113.09 510.19 1119.16 495.12 1127.12 477.86C1140.7 448.43 1168.99 451.47 1177.32 478.32Z" />
				<path id="&lt;Path&gt;" class="shp8" d="M1177.32 478.32C1182.83 496.05 1174.87 517.03 1153.45 541.26L1108.9 523.08C1113.09 510.19 1119.16 495.12 1127.12 477.86C1140.7 448.43 1168.99 451.47 1177.32 478.32Z" />
			</g>
		</g>
	</g>
	<g id="Screen">
		<g id="&lt;Group&gt;">
			<path id="&lt;Path&gt;" class="shp7" d="M734.62 214.79L715.46 214.79L715.46 211.71L734.62 211.71L734.62 214.79Z" />
			<path id="&lt;Path&gt;" class="shp7" d="M983.57 385.62L980.49 385.48L982.79 334L985.87 334.14L983.57 385.62Z" />
			<path id="&lt;Path&gt;" class="shp7" d="M976.84 225.58L622.84 225.58L589.89 962.74L943.88 962.74L976.84 225.58Z" />
			<path id="&lt;Path&gt;" class="shp13" d="M966.27 235.7L612.27 235.7L579.32 972.85L933.32 972.85L966.27 235.7Z" />
			<path id="&lt;Path&gt;" class="shp14" d="M955.7 245.81L601.71 245.81L568.75 982.97L922.75 982.97L955.7 245.81Z" />
			<path id="&lt;Path&gt;" class="shp5" d="M915.41 567.32L613.26 567.32L610.73 623.74L912.89 623.74L915.41 567.32Z" />
			<path id="&lt;Path&gt;" class="shp7" d="M779.44 526.17L615.1 526.17L613.97 551.41L778.32 551.41L779.44 526.17Z" />
			<path id="&lt;Path&gt;" class="shp5" d="M908.6 719.55L606.45 719.55L603.93 775.97L906.08 775.97L908.6 719.55Z" />
			<path id="&lt;Path&gt;" class="shp15" d="M853.19 852.11L650.01 852.11L646.99 919.72L850.17 919.72L853.19 852.11Z" />
			<path id="&lt;Compound Path&gt;" fill-rule="evenodd" class="shp5" d="M839.6 930.2L636.42 930.2C636.32 930.2 636.23 930.16 636.16 930.09C636.09 930.02 636.06 929.92 636.06 929.83L639.09 862.21C639.09 862.02 639.25 861.87 639.44 861.87L842.63 861.87C842.72 861.87 842.82 861.91 842.88 861.98C842.95 862.05 842.99 862.14 842.98 862.24L839.96 929.86C839.95 930.05 839.79 930.2 839.6 930.2ZM636.79 929.48L839.26 929.48L842.25 862.58L639.78 862.58L636.79 929.48Z" />
			<path id="&lt;Path&gt;" class="shp7" d="M743.93 678.4L608.29 678.4L607.16 703.64L742.8 703.64L743.93 678.4Z" />
			<path id="&lt;Path&gt;" class="shp5" d="M849.32 385.14C848.56 402.03 842.44 417.63 832.62 430.3C817.8 449.51 794.58 461.99 769.03 461.99C743.47 461.99 721.4 449.51 708.29 430.3C699.61 417.63 694.88 402.03 695.64 385.14C697.53 342.69 733.48 308.28 775.9 308.28C818.35 308.28 851.21 342.69 849.32 385.14Z" />
			<path id="&lt;Path&gt;" class="shp7" d="M856.55 324.37C856.34 328.86 854.72 333 852.11 336.37C848.17 341.47 842 344.79 835.21 344.79C828.42 344.79 822.56 341.47 819.07 336.37C816.77 333 815.51 328.86 815.71 324.37C816.21 313.09 825.76 303.95 837.04 303.95C848.32 303.95 857.05 313.09 856.55 324.37Z" />
			<path id="&lt;Path&gt;" class="shp10" d="M645.8 595.53C645.57 600.52 641.34 604.57 636.35 604.57C631.36 604.57 627.49 600.52 627.71 595.53C627.94 590.53 632.17 586.49 637.16 586.49C642.15 586.49 646.02 590.53 645.8 595.53Z" />
			<path id="&lt;Path&gt;" class="shp10" d="M686.26 595.53C686.03 600.52 681.81 604.57 676.81 604.57C671.82 604.57 667.95 600.52 668.18 595.53C668.4 590.53 672.63 586.49 677.62 586.49C682.61 586.49 686.48 590.53 686.26 595.53Z" />
			<path id="&lt;Path&gt;" class="shp10" d="M726.72 595.53C726.5 600.52 722.27 604.57 717.27 604.57C712.28 604.57 708.42 600.52 708.64 595.53C708.86 590.53 713.09 586.49 718.08 586.49C723.08 586.49 726.94 590.53 726.72 595.53Z" />
			<path id="&lt;Path&gt;" class="shp10" d="M638.99 747.76C638.77 752.75 634.54 756.8 629.55 756.8C624.55 756.8 620.69 752.75 620.91 747.76C621.13 742.76 625.36 738.72 630.35 738.72C635.35 738.72 639.21 742.76 638.99 747.76Z" />
			<path id="&lt;Path&gt;" class="shp10" d="M679.45 747.76C679.23 752.75 675 756.8 670.01 756.8C665.01 756.8 661.15 752.75 661.37 747.76C661.59 742.76 665.82 738.72 670.82 738.72C675.81 738.72 679.68 742.76 679.45 747.76Z" />
			<path id="&lt;Path&gt;" class="shp10" d="M719.91 747.76C719.69 752.75 715.46 756.8 710.47 756.8C705.48 756.8 701.61 752.75 701.83 747.76C702.06 742.76 706.29 738.72 711.28 738.72C716.27 738.72 720.14 742.76 719.91 747.76Z" />
			<path id="&lt;Path&gt;" class="shp10" d="M760.38 747.76C760.15 752.75 755.92 756.8 750.93 756.8C745.94 756.8 742.07 752.75 742.3 747.76C742.52 742.76 746.75 738.72 751.74 738.72C756.73 738.72 760.6 742.76 760.38 747.76Z" />
			<path id="&lt;Path&gt;" class="shp10" d="M800.84 747.76C800.61 752.75 796.39 756.8 791.39 756.8C786.4 756.8 782.53 752.75 782.76 747.76C782.98 742.76 787.21 738.72 792.2 738.72C797.19 738.72 801.06 742.76 800.84 747.76Z" />
			<g id="&lt;Group&gt;">
				<path id="&lt;Path&gt;" class="shp7" d="M804.71 359.45C803.94 376.62 789.4 390.53 772.24 390.53C755.07 390.53 741.77 376.62 742.54 359.45C743.31 342.28 757.85 328.36 775.01 328.36C792.18 328.36 805.48 342.28 804.71 359.45Z" />
				<path id="&lt;Path&gt;" class="shp7" d="M832.62 430.3C817.8 449.51 794.58 461.99 769.03 461.99C743.47 461.99 721.4 449.51 708.29 430.3C722.88 415.78 745.96 406.35 771.51 406.35C797.1 406.35 819.34 415.78 832.62 430.3Z" />
				<path id="&lt;Path&gt;" class="shp16" d="M804.71 359.45C803.94 376.62 789.4 390.53 772.24 390.53C755.07 390.53 741.77 376.62 742.54 359.45C743.31 342.28 757.85 328.36 775.01 328.36C792.18 328.36 805.48 342.28 804.71 359.45Z" />
				<path id="&lt;Path&gt;" class="shp16" d="M832.62 430.3C817.8 449.51 794.58 461.99 769.03 461.99C743.47 461.99 721.4 449.51 708.29 430.3C722.88 415.78 745.96 406.35 771.51 406.35C797.1 406.35 819.34 415.78 832.62 430.3Z" />
			</g>
		</g>
	</g>
	<g id="Character 1">
		<g id="&lt;Group&gt;">
			<g id="&lt;Group&gt;">
				<path id="&lt;Path&gt;" class="shp6" d="M391.22 637.33C388.38 643.56 385.39 650.42 382.77 657.1C380.12 663.85 377.48 670.61 375.18 677.46C370.71 691.16 366.52 704.99 364.45 718.86L363.77 723.28C363.72 723.81 363.76 724.56 363.99 725.51C364.43 727.42 365.62 729.97 367.29 732.47C370.66 737.53 375.45 742.66 380.62 747.41C385.77 752.25 391.36 756.87 397.18 761.26C402.93 765.69 409 770.02 414.95 774.08L409.36 784.61C395.08 778.37 381.79 770.91 368.91 761.55C362.58 756.72 356.33 751.53 350.79 744.51C348.06 740.97 345.38 736.97 343.62 731.69C342.77 729.06 342.18 726.08 342.17 722.86C342.19 722.12 342.23 721.08 342.28 720.58L342.43 719.09L342.73 716.11C344.36 700.21 347.89 684.92 352.53 670.09C354.87 662.69 357.37 655.36 360.22 648.17C363.12 640.93 366 633.98 369.63 626.7L391.22 637.33Z" />
				<path id="&lt;Path&gt;" class="shp6" d="M410.74 772.3L431.94 761.54L426.46 784.84C416.76 787.55 409.65 786.55 405.14 781.84L410.74 772.3Z" />
				<path id="&lt;Path&gt;" class="shp6" d="M451.35 765.37L445.71 784.63L426.46 784.84L431.94 761.54L451.35 765.37Z" />
				<path id="&lt;Path&gt;" class="shp12" d="M481.3 525C482.52 529.51 484.11 533.47 486.05 536.86C484.38 538.42 482.8 538.93 481.3 538.39L481.3 525Z" />
				<path id="&lt;Path&gt;" class="shp10" d="M478.42 521.74C478.42 523.64 479.43 525.18 480.67 525.18C481.91 525.18 482.92 523.64 482.92 521.74C482.92 519.84 481.91 518.3 480.67 518.3C479.43 518.3 478.42 519.84 478.42 521.74Z" />
				<path id="&lt;Path&gt;" class="shp10" d="M480.12 518.41L484.68 517.1C483.12 519.47 481.6 519.91 480.12 518.41Z" />
				<path id="&lt;Path&gt;" class="shp6" d="M422.69 547.01C425.43 560.97 428.16 586.56 418.39 595.88C420.94 605.33 430.86 610.05 448.16 610.05C467.18 610.05 471.73 605.33 461.8 595.88C446.22 592.16 446.62 580.61 449.34 569.76L422.69 547.01Z" />
				<path id="&lt;Path&gt;" class="shp6" d="M415.12 515.23C416.55 538.54 416.66 548.44 428.43 560.41C446.15 578.41 474.47 571.55 480.03 548.28C485.04 527.33 481.86 492.72 459.04 483.44C436.55 474.3 413.69 491.91 415.12 515.23Z" />
				<path id="&lt;Path&gt;" class="shp10" d="M417.42 488.84C405.73 493.11 390.13 489.94 396.25 526.02C400.57 551.5 399.4 568.42 392.75 576.8C422.34 583.1 452.23 582.92 482.43 576.24C473.21 560.11 469.89 546.17 472.48 534.4C475.78 519.4 476.12 509.12 473.51 503.57C447.07 489.76 428.38 484.85 417.42 488.84Z" />
				<path id="&lt;Path&gt;" class="shp6" d="M466.92 527.38C466.87 532 468.49 536.65 470.59 539.88C473.75 544.75 477.5 542.76 478.44 537.72C479.29 533.18 478.66 525.17 474.61 522.07C470.63 519.01 466.98 522.09 466.92 527.38Z" />
				<path id="&lt;Path&gt;" class="shp10" d="M407.26 492.93C403.89 483.49 419.92 468.98 453.81 475.02C476.41 479.04 488.2 490.45 489.19 509.24L482.33 501.1L482.64 509.67L447.81 516.37L407.26 492.93Z" />
				<g id="&lt;Group&gt;">
					<path id="&lt;Path&gt;" class="shp7" d="M410.13 597.47C409.67 594.59 411.6 591.87 414.49 591.39C425.04 589.65 449.03 586.12 461.1 587.8C470.07 589.04 472.44 594.28 472.82 598.56C473.1 601.74 470.48 604.41 467.29 604.27L415.13 601.91C412.62 601.8 410.54 599.94 410.13 597.47Z" />
					<path id="&lt;Path&gt;" class="shp17" d="M410.13 597.47C409.67 594.59 411.6 591.87 414.49 591.39C425.04 589.65 449.03 586.12 461.1 587.8C470.07 589.04 472.44 594.28 472.82 598.56C473.1 601.74 470.48 604.41 467.29 604.27L415.13 601.91C412.62 601.8 410.54 599.94 410.13 597.47Z" />
				</g>
				<path id="&lt;Path&gt;" class="shp6" d="M440.28 1121.58L459.62 1135.01L491.99 1091.13L472.66 1077.71L440.28 1121.58Z" />
				<path id="&lt;Path&gt;" class="shp6" d="M395.15 1120.7L415.6 1132.35L444.25 1085.94L423.8 1074.29L395.15 1120.7Z" />
				<g id="&lt;Group&gt;">
					<path id="&lt;Path&gt;" class="shp11" d="M491.98 1091.14L475.29 1113.76L455.95 1100.33L472.64 1077.71L491.98 1091.14Z" />
					<path id="&lt;Path&gt;" class="shp11" d="M423.79 1074.3L444.25 1085.96L429.47 1109.87L409.01 1098.22L423.79 1074.3Z" />
				</g>
				<g id="&lt;Group&gt;">
					<path id="&lt;Path&gt;" class="shp7" d="M456.59 743.96C506.95 807.43 527.41 869.52 517.96 930.21C510.33 979.23 484.42 1036.94 440.23 1103.32L409.05 1087.83C431.63 1043.71 450.33 998.27 465.16 951.5C474.48 922.09 470.51 889.68 453.08 864.21C414.81 808.32 353.5 841.58 394.74 743.96L456.59 743.96Z" />
					<path id="&lt;Path&gt;" class="shp17" d="M456.59 743.96C506.95 807.43 527.41 869.52 517.96 930.21C510.33 979.23 484.42 1036.94 440.23 1103.32L409.05 1087.83C431.63 1043.71 450.33 998.27 465.16 951.5C474.48 922.09 470.51 889.68 453.08 864.21C414.81 808.32 353.5 841.58 394.74 743.96L456.59 743.96Z" />
				</g>
				<path id="&lt;Path&gt;" class="shp18" d="M493.65 805.14L482.67 794.23C482.67 795.09 503.94 926.39 509.92 963.29C513.53 951.98 516.31 940.82 517.97 930.21C524.91 885.63 510.33 840.04 493.65 805.14Z" />
				<g id="&lt;Group&gt;">
					<path id="&lt;Path&gt;" class="shp7" d="M490.33 743.96C550.97 823.72 582.14 887.52 583.85 935.35C585.28 975.43 552.25 1034.17 484.77 1111.59L455.38 1092.57C494.84 1037.54 519.54 987.53 529.47 942.54C525.68 898.01 483.14 831.82 401.85 743.96L490.33 743.96Z" />
					<path id="&lt;Path&gt;" class="shp17" d="M490.33 743.96C550.97 823.72 582.14 887.52 583.85 935.35C585.28 975.43 552.25 1034.17 484.77 1111.59L455.38 1092.57C494.84 1037.54 519.54 987.53 529.47 942.54C525.68 898.01 483.14 831.82 401.85 743.96L490.33 743.96Z" />
				</g>
				<path id="&lt;Path&gt;" class="shp7" d="M377.8 601.23C371.3 602.76 364.95 615.32 358.75 638.89L396.74 664.25C405.18 645.62 407.92 632.22 404.98 624.06C400.37 611.31 390.1 598.33 377.8 601.23Z" />
				<path id="&lt;Path&gt;" class="shp8" d="M385.23 623.98L382.58 654.79L396.72 664.25C401.14 654.49 404.01 645.36 405.32 636.85L385.23 623.98Z" />
				<path id="&lt;Path&gt;" class="shp7" d="M501.58 601.91C509.05 604.55 505.31 651.9 490.33 743.96C452.4 743.96 413.2 743.96 394.74 743.96C396.35 705.06 396.39 681.07 377.8 601.23C391.15 598.33 404.68 596.54 418.39 595.88C434.48 595.11 447.65 594.59 461.8 595.88C474.22 597.02 487.49 599.03 501.58 601.91Z" />
				<path id="&lt;Path&gt;" class="shp6" d="M511.29 623.84C513.45 629.83 515.74 636.3 518.13 642.52C520.42 648.83 522.79 655.12 525.25 661.4L532.6 680.24L534.46 684.95L535.4 687.3L535.86 688.48C535.94 688.69 535.93 688.67 535.9 688.65C535.77 688.59 535.66 688 533.8 686.78C532.89 686.21 531.36 685.67 529.88 685.63C528.4 685.58 527.22 685.94 526.55 686.24C525.19 686.88 525.17 687.16 525.2 687.12C525.29 687.07 525.57 686.81 525.87 686.44C527.19 684.86 528.77 682.15 530.16 679.45C531.58 676.69 532.92 673.75 534.26 670.77C536.91 664.79 539.33 658.56 541.78 652.3C544.21 646.04 546.5 639.68 548.77 633.3L555.6 614.15L567.16 617.07C564.87 630.76 561.92 644.18 558.39 657.64C556.67 664.38 554.68 671.07 552.4 677.82C551.26 681.2 549.99 684.57 548.54 688.01C547.02 691.48 545.52 694.89 542.84 698.86C542.13 699.87 541.33 700.93 540.22 702.1C539.04 703.25 537.68 704.64 534.75 705.96C533.3 706.58 531.27 707.14 528.93 707.05C526.6 706.98 524.24 706.16 522.6 705.14C519.27 703.02 518.12 701 517.14 699.48C516.69 698.71 516.3 697.93 516.03 697.36L515.46 696.2L514.32 693.87L512.05 689.21C509.09 682.97 506.18 676.69 503.43 670.35C500.71 663.99 498.05 657.59 495.48 651.14C493.01 644.6 490.58 638.26 488.41 631.3L511.29 623.84Z" />
				<path id="&lt;Path&gt;" class="shp7" d="M501.58 601.91C509.24 603.74 517.37 615.97 525.98 638.6L491.83 667.69C477.08 643.01 471.2 626.6 474.18 618.45C478.84 605.72 486.57 598.34 501.58 601.91Z" />
				<path id="&lt;Path&gt;" class="shp6" d="M560.93 603.57L572.91 593.54L581.25 606.53L575.11 617.38C568.59 623.34 562.44 624.81 556.67 621.78C553.88 615.43 555.61 608.01 560.93 603.57Z" />
				<path id="&lt;Path&gt;" class="shp6" d="M594.66 593.57L593.77 596.84L574.78 600.03L572.91 593.54L594.66 593.57Z" />
				<path id="&lt;Path&gt;" class="shp7" d="M487.21 1113.16L452.95 1091L459.08 1080.33L497.58 1104L487.21 1113.16Z" />
				<path id="&lt;Compound Path&gt;" fill-rule="evenodd" class="shp10" d="M428.95 1130.78C426.23 1130.78 422.64 1129.05 420.47 1127.84C420.27 1127.73 420.16 1127.52 420.19 1127.3C420.21 1127.08 420.36 1126.89 420.57 1126.82C421.5 1126.53 429.62 1124.04 431.92 1125.97C432.29 1126.28 432.69 1126.84 432.56 1127.78C432.39 1129.03 431.83 1129.9 430.87 1130.38C430.32 1130.66 429.66 1130.78 428.95 1130.78ZM422.2 1127.5C425.93 1129.4 428.93 1130.1 430.37 1129.38C430.98 1129.08 431.34 1128.5 431.46 1127.63C431.52 1127.16 431.36 1126.95 431.2 1126.83C430 1125.81 425.49 1126.6 422.2 1127.5Z" />
				<path id="&lt;Compound Path&gt;" fill-rule="evenodd" class="shp10" d="M420.74 1127.91C420.59 1127.91 420.44 1127.85 420.34 1127.74C420.2 1127.6 420.15 1127.39 420.2 1127.2C420.28 1126.93 422.15 1120.41 425.23 1118.93C426.06 1118.53 426.89 1118.51 427.71 1118.85C429 1119.4 429.13 1120.35 429.09 1120.86C428.88 1123.56 423.38 1127.28 420.87 1127.9C420.83 1127.9 420.79 1127.91 420.74 1127.91ZM426.56 1119.73C426.28 1119.73 426 1119.8 425.72 1119.93C423.88 1120.82 422.34 1124.33 421.6 1126.47C424.24 1125.36 427.85 1122.42 427.98 1120.77C428 1120.5 427.94 1120.16 427.28 1119.88C427.04 1119.78 426.79 1119.73 426.56 1119.73Z" />
				<path id="&lt;Compound Path&gt;" fill-rule="evenodd" class="shp10" d="M471.81 1143.74C468.43 1143.74 463.72 1139.4 461.14 1136.73C460.97 1136.56 460.93 1136.3 461.04 1136.09C461.15 1135.88 461.42 1135.76 461.61 1135.79C462.79 1135.94 473.23 1137.35 474.7 1140.3C474.99 1140.87 474.96 1141.48 474.64 1142.05C474.08 1143.03 473.28 1143.58 472.26 1143.71C472.11 1143.73 471.96 1143.74 471.81 1143.74ZM463.11 1137.14C466.9 1140.82 470.22 1142.86 472.12 1142.61C472.79 1142.52 473.29 1142.16 473.67 1141.5C473.81 1141.25 473.82 1141.03 473.71 1140.8C472.9 1139.19 467.33 1137.81 463.11 1137.14Z" />
				<path id="&lt;Compound Path&gt;" fill-rule="evenodd" class="shp10" d="M463.44 1137.04C462.67 1137.04 461.98 1136.99 461.44 1136.89C461.24 1136.86 461.08 1136.72 461.02 1136.54C460.95 1136.35 460.98 1136.14 461.11 1135.99C461.28 1135.78 465.34 1130.89 469.17 1130.55C470.38 1130.46 471.39 1130.78 472.26 1131.52C473.44 1132.53 473.36 1133.43 473.08 1134.01C472.13 1136.01 466.95 1137.04 463.44 1137.04ZM462.67 1135.92C466.02 1136.1 471.38 1134.99 472.08 1133.53C472.14 1133.41 472.31 1133.03 471.54 1132.37C470.89 1131.82 470.14 1131.58 469.27 1131.66C466.75 1131.88 463.94 1134.56 462.67 1135.92Z" />
				<path id="&lt;Path&gt;" class="shp7" d="M421.56 1124.75L396.12 1117.56C395.19 1117.3 394.26 1117.73 393.87 1118.6L385.28 1137.91C384.39 1139.91 385.63 1142.4 387.78 1142.96C396.69 1145.32 401.11 1146.01 412.3 1149.17C419.19 1151.12 429.04 1154.67 438.55 1157.36C447.85 1159.99 451.22 1150.79 447.5 1148.82C430.83 1139.99 429.52 1133.93 424.96 1127.22C424.13 1126.01 422.92 1125.14 421.56 1124.75Z" />
				<path id="&lt;Path&gt;" class="shp7" d="M461.83 1133.23L440.11 1118.15C439.32 1117.6 438.3 1117.7 437.65 1118.4L423.25 1133.87C421.75 1135.47 422.11 1138.22 423.96 1139.46C431.62 1144.58 435.58 1146.67 445.13 1153.3C451.01 1157.38 462.74 1166.43 470.85 1172.07C478.79 1177.58 484.97 1169.98 482.1 1166.9C469.21 1153.13 466.37 1144.49 464.24 1136.66C463.85 1135.25 462.99 1134.03 461.83 1133.23Z" />
				<path id="&lt;Path&gt;" class="shp7" d="M444.22 1105.31L405.06 1085.84L409.11 1075.24L450.92 1095.74L444.22 1105.31Z" />
				<g id="&lt;Group&gt;">
					<path id="&lt;Path&gt;" class="shp7" d="M393.31 738.36L390 746.91C389.66 747.58 390.45 748.25 391.55 748.25L490.8 748.25C491.67 748.25 492.38 747.83 492.43 747.29L493.3 738.73C493.36 738.14 492.61 737.64 491.67 737.64L394.87 737.64C394.16 737.64 393.53 737.93 393.31 738.36Z" />
					<path id="&lt;Path&gt;" class="shp19" d="M393.31 738.36L390 746.91C389.66 747.58 390.45 748.25 391.55 748.25L490.8 748.25C491.67 748.25 492.38 747.83 492.43 747.29L493.3 738.73C493.36 738.14 492.61 737.64 491.67 737.64L394.87 737.64C394.16 737.64 393.53 737.93 393.31 738.36Z" />
				</g>
				<g id="&lt;Group&gt;">
					<path id="&lt;Path&gt;" class="shp7" d="M408.92 749.18L406.33 749.18C405.81 749.18 405.42 748.91 405.46 748.59L406.67 737.47C406.71 737.15 407.16 736.88 407.68 736.88L410.27 736.88C410.78 736.88 411.18 737.15 411.14 737.47L409.93 748.59C409.89 748.91 409.44 749.18 408.92 749.18Z" />
					<path id="&lt;Path&gt;" class="shp7" d="M470.14 749.18L467.55 749.18C467.03 749.18 466.64 748.91 466.68 748.59L467.89 737.47C467.93 737.15 468.38 736.88 468.89 736.88L471.49 736.88C472 736.88 472.4 737.15 472.36 737.47L471.15 748.59C471.11 748.91 470.66 749.18 470.14 749.18Z" />
				</g>
			</g>
			<g id="&lt;Group&gt;">
				<g id="&lt;Group&gt;">
					<path id="&lt;Path&gt;" class="shp20" d="M326.27 1251.42C326.12 1254.65 361.98 1257.26 406.37 1257.26C450.76 1257.26 486.87 1254.65 487.01 1251.43C487.16 1248.21 451.3 1245.6 406.91 1245.59C362.52 1245.59 326.41 1248.2 326.27 1251.42Z" />
					<path id="&lt;Path&gt;" class="shp1" d="M455.62 1243.2C441.4 1239.07 425.75 1233.75 416.06 1228.1C415.79 1227.94 415.51 1227.83 415.24 1227.68L415.24 1163.4L443.84 1163.4C448.57 1163.4 452.4 1159.56 452.4 1154.83C452.4 1150.11 448.57 1146.27 443.84 1146.27L415.24 1146.27L415.24 852.8L398.11 852.8L398.11 1146.27L369.51 1146.27C364.78 1146.27 360.94 1150.11 360.94 1154.83C360.94 1159.56 364.78 1163.4 369.51 1163.4L398.11 1163.4L398.11 1227.68C397.83 1227.83 397.55 1227.94 397.28 1228.1C387.6 1233.75 371.95 1239.07 357.73 1243.2C353.06 1244.55 354.04 1251.43 358.9 1251.43L406.67 1251.43L454.44 1251.43C459.3 1251.43 460.28 1244.55 455.62 1243.2Z" />
				</g>
				<g id="&lt;Group&gt;">
					<path id="&lt;Path&gt;" class="shp7" d="M460.02 885.74L353.33 885.74C344.78 885.74 337.79 878.75 337.79 870.2L337.79 838.48C337.79 829.93 344.78 822.94 353.33 822.94L460.02 822.94C468.57 822.94 475.56 829.93 475.56 838.48L475.56 870.2C475.56 878.75 468.57 885.74 460.02 885.74Z" />
					<g id="&lt;Group&gt;">
						<path id="&lt;Path&gt;" class="shp7" d="M352.34 885.74L352.34 891.2C352.34 895.7 357.24 899.38 363.23 899.38L450.12 899.38C456.1 899.38 461 895.7 461 891.2L461 885.74L352.34 885.74Z" />
						<path id="&lt;Path&gt;" class="shp21" d="M352.34 885.74L352.34 891.2C352.34 895.7 357.24 899.38 363.23 899.38L450.12 899.38C456.1 899.38 461 895.7 461 891.2L461 885.74L352.34 885.74Z" />
					</g>
				</g>
			</g>
		</g>
	</g>
</svg>